<svg viewBox="0 0 319.99999999999994 71.92017901449121" height="71.92017901449121" width="319.99999999999994"><g><svg viewBox="0 0 1823.1087864555986 409.7447196399328" height="71.92017901449121" width="319.99999999999994"><g transform="matrix(1,0,0,1,511.8974024383942,56.628973553709955)"><svg viewBox="0 0 1311.2113840172044 296.4867725325129" height="296.4867725325129" width="1311.2113840172044"><g><svg viewBox="0 0 1311.2113840172044 296.4867725325129" height="296.4867725325129" width="1311.2113840172044"><g><svg viewBox="0 0 1311.2113840172044 159.0112" height="159.0112" width="1311.2113840172044"><g transform="matrix(1,0,0,1,0,0)"><svg viewBox="1.49 -38.09 318.28 38.6" width="1311.2113840172044" height="159.0112" data-palette-color="#030303"><path d="M18.85 0L1.49 0L1.49-4.00L5.32-4.74L5.32-30.79L1.49-31.52L1.49-35.55L5.32-35.55L17.19-35.55Q23.32-35.55 26.76-33.12Q30.20-30.69 30.20-25.83L30.20-25.83Q30.20-23.39 28.85-21.46Q27.49-19.53 25.02-18.58L25.02-18.58Q27.15-18.12 28.59-16.92Q30.03-15.72 30.77-14.01Q31.52-12.30 31.52-10.28L31.52-10.28Q31.52-5.22 28.19-2.61Q24.85 0 18.85 0L18.85 0ZM11.96-15.92L11.96-5.10L18.85-5.10Q21.78-5.10 23.33-6.42Q24.88-7.74 24.88-10.28L24.88-10.28Q24.88-12.08 24.30-13.34Q23.73-14.60 22.52-15.26Q21.31-15.92 19.43-15.92L19.43-15.92L11.96-15.92ZM11.96-30.42L11.96-20.61L17.65-20.61Q20.46-20.61 22.01-21.85Q23.56-23.10 23.56-25.42L23.56-25.42Q23.56-27.98 21.95-29.20Q20.34-30.42 17.19-30.42L17.19-30.42L11.96-30.42ZM45.60 0.51L45.60 0.51Q41.38 0.51 39.00-2.16Q36.62-4.83 36.62-10.47L36.62-10.47L36.62-21.66L33.69-22.39L33.69-26.42L36.62-26.42L43.26-26.42L43.26-10.42Q43.26-7.30 44.30-5.99Q45.33-4.69 47.48-4.69L47.48-4.69Q49.27-4.69 50.58-5.40Q51.90-6.10 52.71-7.42L52.71-7.42L52.71-21.66L49.48-22.39L49.48-26.42L52.71-26.42L59.35-26.42L59.35-4.74L62.50-4.00L62.50 0L53.49 0L53.05-3.47Q51.80-1.54 49.91-0.51Q48.02 0.51 45.60 0.51ZM78.66 0L64.89 0L64.89-4.00L68.45-4.74L68.45-33.33L64.62-34.06L64.62-38.09L75.09-38.09L75.09-4.74L78.66-4.00L78.66 0ZM94.28 0L80.83 0L80.83-4.00L84.39-4.74L84.39-33.33L80.56-34.06L80.56-38.09L91.01-38.09L91.01-4.74L94.28-4.00L94.28 0ZM110.64 0L97.67 0L97.67-3.86L99.85-4.30L99.80-4.39L94.04-12.06L98.16-16.55L107.24-4.74L110.64-4.00L110.64 0ZM105.93-21.56L90.35-7.30L87.27-11.25L98.75-21.95L98.82-22.05L96.09-22.41L96.09-26.42L109.32-26.42L109.32-22.39L105.93-21.56ZM127.38 0L113.08 0L113.08-4.00L116.91-4.74L116.91-30.79L113.08-31.52L113.08-35.55L116.91-35.55L129.87-35.55Q133.90-35.55 136.79-34.14Q139.69-32.74 141.25-30.21Q142.81-27.69 142.81-24.34L142.81-24.34Q142.81-20.97 141.25-18.47Q139.69-15.97 136.79-14.58Q133.90-13.18 129.87-13.18L129.87-13.18L123.55-13.18L123.55-4.74L127.38-4.00L127.38 0ZM123.55-30.42L123.55-18.31L129.87-18.31Q133.00-18.31 134.58-20.00Q136.17-21.68 136.17-24.29L136.17-24.29Q136.17-26.93 134.58-28.67Q133.00-30.42 129.87-30.42L129.87-30.42L123.55-30.42ZM160.66 0L145.28 0L145.28-4.00L149.13-4.81L149.13-30.71L145.28-31.52L145.28-35.55L149.13-35.55L160.53-35.55Q165.30-35.55 168.90-33.30Q172.50-31.05 174.52-27.12Q176.55-23.19 176.55-18.09L176.55-18.09L176.55-17.43Q176.55-12.40 174.56-8.46Q172.57-4.52 168.99-2.26Q165.42 0 160.66 0L160.66 0ZM155.77-30.42L155.77-5.10L160.31-5.10Q163.37-5.10 165.49-6.71Q167.61-8.33 168.75-11.11Q169.88-13.89 169.88-17.43L169.88-17.43L169.88-18.14Q169.88-21.73 168.75-24.50Q167.61-27.27 165.49-28.85Q163.37-30.42 160.31-30.42L160.31-30.42L155.77-30.42ZM194.05 0L179.75 0L179.75-4.00L183.58-4.74L183.58-30.79L179.75-31.52L179.75-35.55L207.72-35.55L207.72-26.07L202.60-26.07L202.23-30.42L190.22-30.42L190.22-20.09L202.79-20.09L202.79-14.97L190.22-14.97L190.22-4.74L194.05-4.00L194.05 0ZM225.79-12.60L212.41-12.60L212.41-17.72L225.79-17.72L225.79-12.60ZM246.81 0.51L246.81 0.51Q241.58 0.51 237.87-1.71Q234.16-3.93 232.18-7.86Q230.20-11.79 230.20-16.99L230.20-16.99L230.20-18.07Q230.20-23.41 232.18-27.45Q234.16-31.49 237.74-33.78Q241.31-36.06 246.15-36.06L246.15-36.06Q250.05-36.06 253.31-35.03Q256.57-34.01 258.99-32.01L258.99-32.01L258.99-24.27L253.98-24.27L253.08-29.13Q252.08-29.93 250.44-30.41Q248.81-30.88 246.66-30.88L246.66-30.88Q243.68-30.88 241.46-29.28Q239.24-27.69 238.03-24.80Q236.82-21.92 236.82-18.12L236.82-18.12L236.82-16.99Q236.82-13.23 238.00-10.46Q239.19-7.69 241.45-6.16Q243.71-4.64 246.98-4.64L246.98-4.64Q248.98-4.64 250.58-5.00Q252.18-5.37 253.25-5.91L253.25-5.91L253.25-12.43L247.81-12.79L247.81-17.50L259.92-17.50L259.92-3.25Q257.72-1.61 254.48-0.55Q251.25 0.51 246.81 0.51ZM276.52 0.51L276.52 0.51Q272.76 0.51 269.96-1.16Q267.17-2.83 265.63-5.77Q264.09-8.72 264.09-12.50L264.09-12.50L264.09-13.50Q264.09-17.38 265.57-20.42Q267.04-23.46 269.70-25.18Q272.37-26.90 275.86-26.90L275.86-26.90Q279.45-26.90 281.89-25.48Q284.33-24.05 285.57-21.39Q286.82-18.73 286.82-14.99L286.82-14.99L286.82-11.30L270.97-11.30L270.92-11.16Q271.02-9.25 271.78-7.78Q272.54-6.30 273.90-5.44Q275.27-4.59 277.22-4.59L277.22-4.59Q279.30-4.59 281.02-5.13Q282.74-5.66 284.30-6.71L284.30-6.71L286.21-2.59Q284.62-1.27 282.18-0.38Q279.74 0.51 276.52 0.51ZM270.97-15.94L271.05-15.82L280.57-15.82L280.57-16.46Q280.57-18.12 280.08-19.35Q279.59-20.58 278.58-21.26Q277.57-21.95 275.95-21.95L275.95-21.95Q274.49-21.95 273.44-21.15Q272.39-20.36 271.78-19.01Q271.17-17.65 270.97-15.94L270.97-15.94ZM303.30 0L289.99 0L289.99-4.00L293.53-4.74L293.53-21.66L289.72-22.39L289.72-26.42L299.68-26.42L300.00-22.61Q301.32-24.63 303.28-25.77Q305.25-26.90 307.74-26.90L307.74-26.90Q311.72-26.90 313.98-24.40Q316.23-21.90 316.23-16.55L316.23-16.55L316.23-4.74L319.77-4.00L319.77 0L306.32 0L306.32-4.00L309.57-4.74L309.57-16.50Q309.57-19.34 308.45-20.52Q307.32-21.70 305.10-21.70L305.10-21.70Q303.44-21.70 302.21-20.98Q300.98-20.26 300.17-18.95L300.17-18.95L300.17-4.74L303.30-4.00L303.30 0Z" opacity="1" transform="matrix(1,0,0,1,0,0)" fill="#030303" class="undefined-text-0" data-fill-palette-color="primary" data-stroke-palette-color="transparent" id="text-0"></path></svg></g></svg></g><g transform="matrix(1,0,0,1,0,215.6366917273578)"><svg viewBox="0 0 1245.650814816344 80.85008080515505" height="80.85008080515505" width="1245.650814816344"><g transform="matrix(1,0,0,1,0,0)"><svg viewBox="2.63 -38.13 595.47 38.660000000000004" width="1245.650814816344" height="80.85008080515505" data-palette-color="#030303"><path d="M15.50 0.50L15.50 0.50Q11.68 0.50 8.78-1.44Q5.88-3.38 4.25-7.30Q2.63-11.23 2.63-17.18L2.63-17.18Q2.63-21.63 3.80-24.94Q4.98-28.25 6.96-30.45Q8.95-32.65 11.44-33.74Q13.93-34.83 16.53-34.83L16.53-34.83Q19.78-34.83 21.88-33.93Q23.98-33.02 26-31.18L26-31.18L23.88-28.98Q22.30-30.48 20.48-31.18Q18.65-31.88 16.43-31.88L16.43-31.88Q14.53-31.88 12.69-31.14Q10.85-30.40 9.38-28.73Q7.90-27.05 7.01-24.23Q6.13-21.40 6.13-17.20L6.13-17.20Q6.13-12.08 7.25-8.81Q8.38-5.55 10.59-4Q12.80-2.45 16-2.45L16-2.45Q17.95-2.45 19.74-2.91Q21.53-3.38 23.20-4.30L23.20-4.30L23.20-15.55L15.73-15.55L15.28-18.53L26.50-18.53L26.50-2.35Q24.25-1.20 21.73-0.35Q19.20 0.50 15.50 0.50ZM55.57-11.88L37.72-11.88Q37.80-8.58 38.91-6.46Q40.02-4.35 41.85-3.35Q43.67-2.35 45.82-2.35L45.82-2.35Q47.90-2.35 49.51-2.95Q51.12-3.55 52.90-4.78L52.90-4.78L54.52-2.45Q52.70-1.05 50.41-0.28Q48.12 0.50 45.95 0.50L45.95 0.50Q42.32 0.50 39.73-1.20Q37.15-2.90 35.77-5.96Q34.40-9.03 34.40-13.10L34.40-13.10Q34.40-17.10 35.80-20.18Q37.20-23.25 39.69-24.99Q42.17-26.73 45.47-26.73L45.47-26.73Q48.67-26.73 50.95-25.18Q53.22-23.63 54.44-20.79Q55.65-17.95 55.65-14.03L55.65-14.03Q55.65-13.35 55.62-12.81Q55.60-12.28 55.57-11.88L55.57-11.88ZM45.55-23.83L45.55-23.83Q42.37-23.83 40.21-21.58Q38.05-19.33 37.77-14.68L37.77-14.68L52.70-14.68Q52.60-19.30 50.62-21.56Q48.65-23.83 45.55-23.83ZM68.57 0L65.47 0L65.47-26.25L68.07-26.25L68.32-22.43Q69.87-24.48 72.41-25.60Q74.95-26.73 77.15-26.73L77.15-26.73Q81.17-26.73 82.88-24.68Q84.59-22.63 84.59-19L84.59-19L84.59 0L81.50 0L81.50-15.68Q81.50-18.68 81.17-20.55Q80.84-22.43 79.77-23.29Q78.70-24.15 76.40-24.15L76.40-24.15Q74.65-24.15 73.11-23.39Q71.57-22.63 70.41-21.51Q69.25-20.40 68.57-19.35L68.57-19.35L68.57 0ZM115.57-11.88L97.72-11.88Q97.79-8.58 98.91-6.46Q100.02-4.35 101.84-3.35Q103.67-2.35 105.82-2.35L105.82-2.35Q107.89-2.35 109.51-2.95Q111.12-3.55 112.89-4.78L112.89-4.78L114.52-2.45Q112.69-1.05 110.41-0.28Q108.12 0.50 105.94 0.50L105.94 0.50Q102.32 0.50 99.73-1.20Q97.14-2.90 95.77-5.96Q94.39-9.03 94.39-13.10L94.39-13.10Q94.39-17.10 95.79-20.18Q97.19-23.25 99.68-24.99Q102.17-26.73 105.47-26.73L105.47-26.73Q108.67-26.73 110.94-25.18Q113.22-23.63 114.43-20.79Q115.64-17.95 115.64-14.03L115.64-14.03Q115.64-13.35 115.62-12.81Q115.59-12.28 115.57-11.88L115.57-11.88ZM105.54-23.83L105.54-23.83Q102.37-23.83 100.21-21.58Q98.04-19.33 97.77-14.68L97.77-14.68L112.69-14.68Q112.59-19.30 110.62-21.56Q108.64-23.83 105.54-23.83ZM138.49 0L125.72 0L125.72-2.60L129.99-2.60L129.99-23.63L125.72-23.63L125.72-26.25L132.37-26.25L132.94-19.95Q134.49-23.15 136.65-24.96Q138.81-26.78 142.49-26.78L142.49-26.78Q143.52-26.78 144.33-26.63Q145.14-26.48 146.04-26.25L146.04-26.25L145.17-23.33Q144.29-23.58 143.63-23.69Q142.97-23.80 142.12-23.80L142.12-23.80Q138.94-23.80 136.72-21.64Q134.49-19.48 133.09-14.80L133.09-14.80L133.09-2.60L138.49-2.60L138.49 0ZM145.69-18L142.69-18L142.69-23.13L142.89-26.25L146.04-26.25L145.69-18ZM173.29-18.48L173.29-5.18Q173.29-3.58 173.84-2.84Q174.39-2.10 175.54-1.75L175.54-1.75L174.69 0.53Q173.19 0.30 172.01-0.58Q170.84-1.45 170.36-3.25L170.36-3.25Q168.99-1.43 166.93-0.46Q164.86 0.50 162.26 0.50L162.26 0.50Q158.36 0.50 156.14-1.70Q153.91-3.90 153.91-7.58L153.91-7.58Q153.91-11.58 157.03-13.70Q160.14-15.83 166.09-15.83L166.09-15.83L170.06-15.83L170.06-18.38Q170.06-21.45 168.30-22.69Q166.54-23.93 163.49-23.93L163.49-23.93Q162.16-23.93 160.49-23.63Q158.81-23.33 156.76-22.60L156.76-22.60L155.86-25.15Q158.24-26.03 160.18-26.38Q162.11-26.73 163.94-26.73L163.94-26.73Q168.56-26.73 170.93-24.46Q173.29-22.20 173.29-18.48L173.29-18.48ZM162.86-1.98L162.86-1.98Q165.01-1.98 166.89-3.03Q168.76-4.08 170.06-5.95L170.06-5.95L170.06-13.45L165.71-13.45Q161.04-13.45 159.19-11.81Q157.34-10.18 157.34-7.48L157.34-7.48Q157.34-4.75 158.69-3.36Q160.04-1.98 162.86-1.98ZM204.14-3.48L205.49-1.25Q204.19-0.40 202.34 0.05Q200.49 0.50 198.91 0.50L198.91 0.50Q194.96 0.50 192.72-1.60Q190.49-3.70 190.49-6.88L190.49-6.88L190.49-23.65L184.29-23.65L184.29-26.25L190.49-26.25L190.49-32.30L193.59-32.68L193.59-26.25L202.84-26.25L202.41-23.65L193.59-23.65L193.59-6.95Q193.59-4.67 194.82-3.44Q196.06-2.20 198.99-2.20L198.99-2.20Q200.49-2.20 201.76-2.55Q203.04-2.90 204.14-3.48L204.14-3.48ZM235.56-11.88L217.71-11.88Q217.78-8.58 218.90-6.46Q220.01-4.35 221.83-3.35Q223.66-2.35 225.81-2.35L225.81-2.35Q227.88-2.35 229.50-2.95Q231.11-3.55 232.88-4.78L232.88-4.78L234.51-2.45Q232.68-1.05 230.40-0.28Q228.11 0.50 225.93 0.50L225.93 0.50Q222.31 0.50 219.72-1.20Q217.13-2.90 215.76-5.96Q214.38-9.03 214.38-13.10L214.38-13.10Q214.38-17.10 215.78-20.18Q217.18-23.25 219.67-24.99Q222.16-26.73 225.46-26.73L225.46-26.73Q228.66-26.73 230.93-25.18Q233.21-23.63 234.42-20.79Q235.63-17.95 235.63-14.03L235.63-14.03Q235.63-13.35 235.61-12.81Q235.58-12.28 235.56-11.88L235.56-11.88ZM225.53-23.83L225.53-23.83Q222.36-23.83 220.20-21.58Q218.03-19.33 217.76-14.68L217.76-14.68L232.68-14.68Q232.58-19.30 230.61-21.56Q228.63-23.83 225.53-23.83ZM294.03-23.93L294.03-23.93Q294.03-26.85 292.87-28.53Q291.70-30.20 289.74-30.91Q287.78-31.63 285.38-31.63L285.38-31.63L279.75-31.63L279.75-15.93L285.03-15.93Q287.60-15.93 289.63-16.59Q291.65-17.25 292.84-18.99Q294.03-20.73 294.03-23.93ZM297.53-24L297.53-24Q297.53-19.98 295.83-17.60Q294.13-15.23 291.15-14.19Q288.18-13.15 284.35-13.15L284.35-13.15L279.75-13.15L279.75 0L276.55 0L276.55-34.35L284.70-34.35Q290.60-34.35 294.06-31.84Q297.53-29.33 297.53-24ZM323.80-17.35L323.80-17.35Q323.80-22.15 322.74-24.99Q321.68-27.83 319.98-29.23Q318.28-30.63 316.31-31.08Q314.35-31.53 312.53-31.53L312.53-31.53L307.80-31.53L307.80-2.75L312.60-2.75Q314.50-2.75 316.46-3.35Q318.43-3.95 320.09-5.53Q321.75-7.10 322.78-9.96Q323.80-12.83 323.80-17.35ZM327.28-17.35L327.28-17.35Q327.28-11.90 325.88-8.49Q324.48-5.08 322.19-3.23Q319.90-1.38 317.25-0.69Q314.60 0 312.08 0L312.08 0L304.63 0L304.63-34.35L311.55-34.35Q314.48-34.35 317.28-33.69Q320.08-33.02 322.34-31.21Q324.60-29.40 325.94-26.06Q327.28-22.73 327.28-17.35ZM356.45-31.50L340.50-31.50L340.50-18.57L354.40-18.57L354.40-15.80L340.50-15.80L340.50 0L337.35 0L337.35-34.35L356.87-34.35L356.45-31.50ZM396.77-26.25L407.92-26.25L407.92-2.70L415.54-2.70L415.54 0L396.52 0L396.52-2.70L404.82-2.70L404.82-23.55L396.77-23.55L396.77-26.25ZM404.99-38.13L404.99-38.13Q406.19-38.13 406.89-37.40Q407.59-36.68 407.59-35.65L407.59-35.65Q407.59-34.55 406.89-33.81Q406.19-33.08 404.99-33.08L404.99-33.08Q403.87-33.08 403.17-33.81Q402.47-34.55 402.47-35.65L402.47-35.65Q402.47-36.68 403.17-37.40Q403.87-38.13 404.99-38.13ZM428.54 0L425.44 0L425.44-26.25L428.04-26.25L428.29-22.43Q429.84-24.48 432.38-25.60Q434.92-26.73 437.12-26.73L437.12-26.73Q441.14-26.73 442.85-24.68Q444.57-22.63 444.57-19L444.57-19L444.57 0L441.47 0L441.47-15.68Q441.47-18.68 441.14-20.55Q440.82-22.43 439.74-23.29Q438.67-24.15 436.37-24.15L436.37-24.15Q434.62-24.15 433.08-23.39Q431.54-22.63 430.38-21.51Q429.22-20.40 428.54-19.35L428.54-19.35L428.54 0ZM488.54-37.30L488.54-22.63Q490.04-24.60 491.97-25.66Q493.91-26.73 496.26-26.73L496.26-26.73Q499.81-26.73 501.99-25.03Q504.16-23.33 505.15-20.26Q506.14-17.20 506.14-13.13L506.14-13.13Q506.14-9.18 504.95-6.10Q503.76-3.03 501.46-1.26Q499.16 0.50 495.79 0.50L495.79 0.50Q491.09 0.50 488.44-2.83L488.44-2.83L488.14 0L485.44 0L485.44-36.88L488.54-37.30ZM495.11-2.20L495.11-2.20Q498.76-2.20 500.70-4.94Q502.64-7.68 502.64-13.18L502.64-13.18Q502.64-16.68 501.87-19.10Q501.11-21.53 499.60-22.80Q498.09-24.08 495.81-24.08L495.81-24.08Q493.36-24.08 491.51-22.61Q489.66-21.15 488.54-19.50L488.54-19.50L488.54-5.90Q489.66-4.23 491.40-3.21Q493.14-2.20 495.11-2.20ZM515.43-26.25L518.53-26.25L518.53-7.48Q518.53-4.67 519.72-3.39Q520.91-2.10 523.48-2.10L523.48-2.10Q525.93-2.10 528.08-3.49Q530.23-4.88 531.38-6.68L531.38-6.68L531.38-26.25L534.48-26.25L534.48 0L531.88 0L531.53-3.68Q529.93-1.68 527.63-0.59Q525.33 0.50 523.03 0.50L523.03 0.50Q519.23 0.50 517.33-1.49Q515.43-3.48 515.43-7.10L515.43-7.10L515.43-26.25ZM543.35-36.88L554.60-36.88L554.60-5.95Q554.60-3.90 555.92-3.05Q557.23-2.20 559.23-2.20L559.23-2.20Q560.48-2.20 561.59-2.45Q562.70-2.70 563.85-3.15L563.85-3.15L564.75-0.75Q563.78-0.28 562.28 0.11Q560.78 0.50 558.93 0.50L558.93 0.50Q555.83 0.50 553.67-1.19Q551.50-2.88 551.50-5.95L551.50-5.95L551.50-34.18L543.35-34.18L543.35-36.88ZM591.93-26.25L596.55-26.25L583.78-14.38L598.10 0L593.63 0L579.40-14.33L591.93-26.25ZM575.78-36.88L578.88-37.30L578.88 0L575.78 0L575.78-36.88Z" opacity="1" transform="matrix(1,0,0,1,0,0)" fill="#030303" class="undefined-text-1" data-fill-palette-color="secondary" data-stroke-palette-color="transparent" id="text-1"></path></svg></g></svg></g></svg></g></svg></g><g><svg viewBox="0 0 455.2719107110364 409.7447196399328" height="409.7447196399328" width="455.2719107110364"><g><svg xmlns="http://www.w3.org/2000/svg" xmlns:xlink="http://www.w3.org/1999/xlink" version="1.0" x="0" y="0" viewBox="20 23 60 54" enable-background="new 0 0 100 100" xml:space="preserve" height="409.7447196399328" width="455.2719107110364" class="icon-icon-0" fill="#030303" data-fill-palette-color="accent" data-stroke-palette-color="transparent" id="icon-0"><g><g><polygon fill="#030303" points="47,35 41,35 41,44 32,44 32,50 41,50 41,59 47,59 47,50 56,50 56,44 47,44   " data-fill-palette-color="accent" data-stroke-palette-color="transparent"></polygon><path fill="#030303" d="M71.062,23H28.938C24.012,23,20,27.012,20,31.939v36.121C20,72.988,24.012,77,28.938,77H62l18-17.998    V31.939C80,27.012,75.988,23,71.062,23z M65,66.758v-1.818C65,63.318,66.318,62,67.938,62h1.816L65,66.758z M74,56.514    C73.227,56.211,72.281,56,71.062,56h-3.125C63.012,56,59,60.012,59,64.939v3.121c0,1.16,0.195,2.125,0.512,2.939H28.938    C27.318,71,26,69.682,26,68.061V31.939C26,30.318,27.318,29,28.938,29h42.125C72.682,29,74,30.318,74,31.939V56.514z" data-fill-palette-color="accent" data-stroke-palette-color="transparent"></path></g></g></svg></g></svg></g></svg></g></svg>
